<?xml version="1.0" encoding="utf-8"?>
<!-- Svg Vector Icons : http://www.onlinewebfonts.com/icon -->
<!DOCTYPE svg PUBLIC "-//W3C//DTD SVG 1.1//EN" "http://www.w3.org/Graphics/SVG/1.1/DTD/svg11.dtd">
<svg version="1.1" xmlns="http://www.w3.org/2000/svg" xmlns:xlink="http://www.w3.org/1999/xlink" x="0px" y="0px" viewBox="0 0 1000 1000" enable-background="new 0 0 1000 1000" xml:space="preserve">
<metadata> Svg Vector Icons : http://www.onlinewebfonts.com/icon </metadata>
<g><path style="fill: #D6BE61;" d="M500,10C229.4,10,10,229.4,10,500c0,270.6,219.4,490,490,490c270.6,0,490-219.4,490-490C990,229.4,770.6,10,500,10z M263.9,841.3V702.4c0-40.8,36.9-74,82.1-74h15.9l6.6,6.1c37.8,27.1,84,43.2,134,43.2c50.1,0,96.3-16.1,134.1-43.2l6.6-6.1h10.7c45.3,0,82.1,33.2,82.1,74v138.8c0,3.7-0.4,7.3-1,10.9c-45.4,30.4-97,52.2-152.4,63.1H417.4c-55.5-11-107.1-32.8-152.5-63.2C264.3,848.6,263.9,845,263.9,841.3z M323,446.4c0-102.2,80.4-185.1,179.6-185.1c99.2,0,179.6,82.8,179.6,185.1c0,58.8-26.7,111.1-68.2,145c-22.7,18.6-49.9,31.6-79.6,37c-10.4,1.9-21,3.1-31.9,3.1c-10.9,0-21.5-1.2-31.8-3.1c-29.7-5.4-56.9-18.4-79.6-37C349.7,557.5,323,505.2,323,446.4z M777.1,819.9V702.4c0-53.1-41.6-97.5-96.8-108.4l0.7-0.6c32.8-40,52.6-91.2,52.6-147c0-127.7-103.4-231.3-231-231.3c-127.5,0-230.9,103.6-230.9,231.3c0,55.8,19.7,106.9,52.5,146.8c-57.5,9.4-101.3,54.7-101.3,109.2v117.5C133.3,742.3,76.6,627.8,76.6,500C76.6,266.2,266.2,76.6,500,76.6c233.8,0,423.4,189.6,423.4,423.4C923.4,627.8,866.7,742.3,777.1,819.9z"/></g>
</svg>
